<svg xmlns="http://www.w3.org/2000/svg" viewBox="0 0 140 140" role="img" aria-label="PrepMed icon">
  <rect x="0" y="0" width="140" height="140" rx="28" fill="#e7f7ff"/>

  <g transform="translate(15,4)">
    <rect x="14" y="18" width="30" height="150" rx="15" fill="#0f9da4"/>
    <path d="M44 18 H100 A54 54 0 0 1 100 126 H44 Z" fill="#0f9da4"/>
    <path d="M44 46 H98 A26 26 0 0 1 98 98 H44 Z" fill="#e7f7ff"/>

    <g transform="translate(46,32)">
      <polygon points="46,0 92,20 46,40 0,20" fill="#ffffff" stroke="#0f9da4" stroke-width="4" stroke-linejoin="round"/>
      <rect x="66" y="20" width="7" height="30" rx="3" fill="#ff6f2c"/>
      <circle cx="69.5" cy="53" r="7" fill="#ff6f2c"/>
    </g>

    <g transform="translate(4,-6) rotate(-12)">
      <path d="M0 0 L34 12 L19 17 L11 34 Z" fill="#ff6f2c" stroke="#e7f7ff" stroke-width="3" stroke-linejoin="round"/>
    </g>
  </g>
</svg>
